<svg width="34" height="34" viewBox="0 0 34 34" fill="none" xmlns="http://www.w3.org/2000/svg">
<g id="Vector">
<path d="M34 17C34 26.3888 26.3888 34 17 34C7.61116 34 0 26.3888 0 17C0 7.61116 7.61116 0 17 0C26.3888 0 34 7.61116 34 17Z" fill="#FE6162"/>
<path d="M26.0252 26.2671C25.8683 25.6855 25.4455 25.4036 24.8556 25.4612C23.7135 25.5719 23.3343 25.2058 22.7923 24.4014C24.2206 24.704 25.1418 24.332 25.4295 24.1667C25.8 23.9527 26.1749 23.6782 26.0267 23.194C25.8814 22.7202 25.4455 22.6258 24.998 22.7114C24.363 22.8324 23.7542 22.9033 23.2602 22.2848C23.3648 22.1904 23.4694 22.0929 23.577 21.9999C23.8399 21.7741 24.0434 21.5084 23.9097 21.1498C23.7818 20.8073 23.4578 20.611 23.128 20.6716C22.8592 20.7217 22.3201 20.89 22.1559 20.6155L22.1632 20.6125C22.1007 20.5978 22.0048 20.3409 21.9845 20.1535C21.8886 19.2369 22.2852 18.3572 22.8199 17.6266C23.4869 16.7188 23.9446 15.7181 24.148 14.6082C24.4662 12.8665 24.1291 11.2458 23.1875 9.75655C22.0702 7.9883 20.4952 6.82374 18.4217 6.3957C17.935 6.29533 17.4599 6.24219 16.9993 6.23334C16.5372 6.24219 16.0635 6.29533 15.5768 6.3957C13.5048 6.82374 11.9283 7.9883 10.811 9.75655C9.87088 11.2458 9.53379 12.8665 9.85054 14.6082C10.0525 15.7196 10.5117 16.7188 11.1786 17.6266C11.7147 18.3572 12.1114 19.2354 12.014 20.1535C11.9937 20.3409 11.8978 20.5978 11.8353 20.6125L11.8426 20.6155C11.6784 20.8885 11.1408 20.7217 10.8705 20.6716C10.5422 20.611 10.2167 20.8073 10.0888 21.1498C9.95516 21.5084 10.1571 21.7741 10.4216 21.9999C10.5291 22.0929 10.6337 22.1904 10.7383 22.2848C10.2443 22.9033 9.63405 22.8324 9.00054 22.7114C8.55302 22.6258 8.11712 22.7202 7.97182 23.194C7.82362 23.6782 8.19849 23.9527 8.569 24.1667C8.85524 24.332 9.77789 24.7025 11.2062 24.4014C10.6642 25.2058 10.285 25.5719 9.14294 25.4612C8.55302 25.4036 8.12875 25.6855 7.97328 26.2671C7.82071 26.8353 8.12148 27.2427 8.59806 27.5143C8.91046 27.6914 9.25917 27.7608 9.62823 27.7667C11.6493 27.7947 13.3174 26.9608 14.8198 25.7062C15.6465 25.0154 16.3265 24.6656 17.0007 24.6567C17.6749 24.6656 18.3534 25.0154 19.1817 25.7062C20.684 26.9608 22.3521 27.7947 24.3732 27.7667C24.7423 27.7622 25.091 27.6914 25.4034 27.5143C25.8814 27.2427 26.1807 26.8353 26.0281 26.2671H26.0252ZM14.2095 19.3815C13.5847 19.3801 13.0689 18.8575 13.0675 18.2273C13.0675 17.5852 13.5891 17.0598 14.2328 17.0539C14.8445 17.048 15.3893 17.628 15.3835 18.279C15.3777 18.924 14.8866 19.3845 14.2095 19.3815ZM19.7875 19.3815C19.109 19.3845 18.6193 18.9225 18.6135 18.279C18.6077 17.628 19.154 17.048 19.7643 17.0539C20.408 17.0613 20.9296 17.5867 20.9296 18.2273C20.9296 18.8575 20.4123 19.3801 19.7875 19.3815Z" fill="white"/>
</g>
</svg>
