<svg width="277" height="60" viewBox="0 0 277 60" fill="none" xmlns="http://www.w3.org/2000/svg">
<circle cx="30" cy="30" r="30" fill="#FE6162"/>
<path d="M45.9269 46.3536C45.65 45.3274 44.9038 44.8299 43.8628 44.9315C41.8474 45.1268 41.1782 44.4808 40.2218 43.0613C42.7423 43.5952 44.3679 42.9389 44.8756 42.6471C45.5295 42.2694 46.191 41.785 45.9295 40.9306C45.6731 40.0945 44.9038 39.9278 44.1141 40.0789C42.9936 40.2925 41.9192 40.4175 41.0474 39.3261C41.232 39.1594 41.4166 38.9875 41.6064 38.8234C42.0705 38.4249 42.4295 37.9561 42.1936 37.3231C41.9679 36.7188 41.3961 36.3724 40.8141 36.4792C40.3397 36.5678 39.3884 36.8647 39.0987 36.3802L39.1115 36.375C39.0013 36.349 38.832 35.8957 38.7961 35.5649C38.6269 33.9474 39.3269 32.395 40.2705 31.1057C41.4474 29.5038 42.2551 27.7378 42.6141 25.7791C43.1756 22.7055 42.5807 19.8456 40.9192 17.2174C38.9474 14.097 36.1679 12.0419 32.509 11.2865C31.65 11.1094 30.8115 11.0156 29.9987 11C29.1833 11.0156 28.3474 11.1094 27.4884 11.2865C23.832 12.0419 21.05 14.097 19.0782 17.2174C17.4192 19.8456 16.8243 22.7055 17.3833 25.7791C17.7397 27.7404 18.55 29.5038 19.7269 31.1057C20.6731 32.395 21.3731 33.9448 21.2013 35.5649C21.1654 35.8957 20.9961 36.349 20.8859 36.375L20.8987 36.3802C20.609 36.8621 19.6602 36.5678 19.1833 36.4792C18.6038 36.3724 18.0295 36.7188 17.8038 37.3231C17.5679 37.9561 17.9243 38.4249 18.391 38.8234C18.5807 38.9875 18.7654 39.1594 18.95 39.3261C18.0782 40.4175 17.0013 40.2925 15.8833 40.0789C15.0936 39.9278 14.3243 40.0945 14.0679 40.9306C13.8064 41.785 14.4679 42.2694 15.1218 42.6471C15.6269 42.9389 17.2551 43.5926 19.7756 43.0613C18.8192 44.4808 18.15 45.1268 16.1346 44.9315C15.0936 44.8299 14.3448 45.3274 14.0705 46.3536C13.8013 47.3564 14.332 48.0753 15.1731 48.5546C15.7243 48.8672 16.3397 48.9896 16.991 49C20.5577 49.0495 23.5013 47.5778 26.1525 45.3638C27.6115 44.1448 28.8115 43.5275 30.0013 43.5119C31.191 43.5275 32.3884 44.1448 33.85 45.3638C36.5013 47.5778 39.4448 49.0495 43.0115 49C43.6628 48.9922 44.2782 48.8672 44.8295 48.5546C45.6731 48.0753 46.2013 47.3564 45.932 46.3536H45.9269ZM25.0756 34.2027C23.9731 34.2001 23.0628 33.278 23.0602 32.1658C23.0602 31.0328 23.9807 30.1055 25.1166 30.0951C26.1961 30.0847 27.1577 31.1083 27.1474 32.257C27.1372 33.3952 26.2705 34.2079 25.0756 34.2027ZM34.9192 34.2027C33.7218 34.2079 32.8577 33.3926 32.8474 32.257C32.8372 31.1083 33.8013 30.0847 34.8782 30.0951C36.0141 30.1081 36.9346 31.0354 36.9346 32.1658C36.9346 33.278 36.0218 34.2001 34.9192 34.2027Z" fill="white"/>
<path d="M212.321 21.0723C210.249 21.0723 208.599 19.3943 208.599 17.2861C208.599 15.1779 210.249 13.543 212.321 13.543C214.351 13.543 216 15.1779 216 17.2861C216 19.3943 214.351 21.0723 212.321 21.0723ZM209.107 45.9406V24.4282H215.62V45.9406H209.107Z" fill="white"/>
<path d="M191.621 46.4999C187.138 46.4999 184.347 43.8323 184.347 39.6159C184.347 35.6576 187.096 33.2052 192.171 32.818L198.092 32.3447V32.0005C198.092 29.8923 196.823 28.7736 194.497 28.7736C191.748 28.7736 190.268 29.8493 190.268 31.7854H184.855C184.855 26.9236 188.788 23.7397 194.835 23.7397C200.968 23.7397 204.435 27.2248 204.435 33.3773V45.9405H198.684L198.261 43.1009C197.584 45.08 194.793 46.4999 191.621 46.4999ZM193.905 41.595C196.4 41.595 198.134 40.3473 198.134 37.8949V36.7332L194.835 37.0344C192.002 37.2926 190.987 37.9379 190.987 39.3147C190.987 40.8636 191.917 41.595 193.905 41.595Z" fill="white"/>
<path d="M168.373 45.9407H161.86V13.5H168.373V32.1728L175.224 24.4283H183.386L175.435 32.9472L183.132 45.9407H175.604L170.868 37.895L168.373 40.5626V45.9407Z" fill="white"/>
<path d="M142.725 45.9405H136.213V24.4281H142.345L142.768 26.6654C144.079 24.8154 146.489 23.7397 149.238 23.7397C154.271 23.7397 157.189 27.0096 157.189 32.6459V45.9405H150.676V34.2378C150.676 31.5272 149.196 29.7632 146.954 29.7632C144.375 29.7632 142.725 31.4842 142.725 34.1517V45.9405Z" fill="white"/>
<path d="M128.028 21.0723C125.956 21.0723 124.306 19.3943 124.306 17.2861C124.306 15.1779 125.956 13.543 128.028 13.543C130.058 13.543 131.707 15.1779 131.707 17.2861C131.707 19.3943 130.058 21.0723 128.028 21.0723ZM124.814 45.9406V24.4282H131.327V45.9406H124.814Z" fill="white"/>
<path d="M105.68 45.9407H99.1668V13.5H105.722V26.6656C107.033 24.8155 109.444 23.7399 112.192 23.7399C117.225 23.7399 120.143 27.0098 120.143 32.646V45.9407H113.63V34.2379C113.63 31.5274 112.15 29.7634 109.909 29.7634C107.329 29.7634 105.68 31.4844 105.68 34.1519V45.9407Z" fill="white"/>
<path d="M72.4652 23.3527C72.4652 17.5874 77.2441 13.5 83.9683 13.5C90.6926 13.5 94.9217 17.2862 94.9217 23.3096H88.1129C88.1129 21.0724 86.4635 19.6956 83.8838 19.6956C81.0926 19.6956 79.3163 20.9863 79.3163 23.0945C79.3163 25.0306 80.289 25.9772 82.4882 26.4505L87.1825 27.44C92.7649 28.6017 95.4292 31.3123 95.4292 36.3462C95.4292 42.4987 90.6926 46.5 83.5031 46.5C76.5251 46.5 72 42.6708 72 36.6904H78.8088C78.8088 39.0137 80.5005 40.3044 83.5454 40.3044C86.6327 40.3044 88.5781 39.0567 88.5781 37.0346C88.5781 35.2705 87.7745 34.367 85.7023 33.9368L80.9234 32.9472C75.341 31.7855 72.4652 28.5587 72.4652 23.3527Z" fill="white"/>
<path d="M234.307 37H229.598V22.4545H234.456C235.881 22.4545 237.105 22.7457 238.128 23.3281C239.151 23.9058 239.934 24.7367 240.479 25.821C241.028 26.9006 241.303 28.1955 241.303 29.706C241.303 31.2211 241.026 32.5232 240.472 33.6122C239.922 34.7012 239.127 35.5393 238.085 36.1264C237.044 36.7088 235.784 37 234.307 37ZM231.793 35.0824H234.186C235.294 35.0824 236.215 34.8741 236.949 34.4574C237.683 34.036 238.232 33.4276 238.597 32.6321C238.961 31.8319 239.143 30.8565 239.143 29.706C239.143 28.5649 238.961 27.5966 238.597 26.8011C238.237 26.0057 237.699 25.402 236.984 24.9901C236.269 24.5781 235.382 24.3722 234.321 24.3722H231.793V35.0824ZM248.456 37.2202C247.434 37.2202 246.541 36.9858 245.779 36.517C245.016 36.0483 244.425 35.3925 244.003 34.5497C243.582 33.7069 243.371 32.7221 243.371 31.5952C243.371 30.4635 243.582 29.474 244.003 28.6264C244.425 27.7789 245.016 27.1207 245.779 26.652C246.541 26.1832 247.434 25.9489 248.456 25.9489C249.479 25.9489 250.372 26.1832 251.134 26.652C251.896 27.1207 252.488 27.7789 252.909 28.6264C253.331 29.474 253.542 30.4635 253.542 31.5952C253.542 32.7221 253.331 33.7069 252.909 34.5497C252.488 35.3925 251.896 36.0483 251.134 36.517C250.372 36.9858 249.479 37.2202 248.456 37.2202ZM248.463 35.4375C249.126 35.4375 249.676 35.2623 250.111 34.9119C250.547 34.5616 250.869 34.0952 251.077 33.5128C251.29 32.9304 251.397 32.2888 251.397 31.5881C251.397 30.892 251.29 30.2528 251.077 29.6705C250.869 29.0833 250.547 28.6122 250.111 28.2571C249.676 27.902 249.126 27.7244 248.463 27.7244C247.796 27.7244 247.242 27.902 246.801 28.2571C246.366 28.6122 246.042 29.0833 245.828 29.6705C245.62 30.2528 245.516 30.892 245.516 31.5881C245.516 32.2888 245.62 32.9304 245.828 33.5128C246.042 34.0952 246.366 34.5616 246.801 34.9119C247.242 35.2623 247.796 35.4375 248.463 35.4375ZM260.507 37.2202C259.451 37.2202 258.542 36.9811 257.78 36.5028C257.022 36.0199 256.44 35.3546 256.033 34.5071C255.625 33.6596 255.422 32.6889 255.422 31.5952C255.422 30.4872 255.63 29.5095 256.047 28.6619C256.464 27.8097 257.051 27.1444 257.808 26.6662C258.566 26.188 259.458 25.9489 260.486 25.9489C261.314 25.9489 262.053 26.1027 262.702 26.4105C263.35 26.7135 263.874 27.1397 264.271 27.6889C264.674 28.2382 264.913 28.8797 264.989 29.6136H262.922C262.808 29.1023 262.548 28.6619 262.141 28.2926C261.738 27.9233 261.198 27.7386 260.521 27.7386C259.929 27.7386 259.411 27.8949 258.966 28.2074C258.526 28.5152 258.182 28.9555 257.936 29.5284C257.69 30.0966 257.567 30.7689 257.567 31.5455C257.567 32.3409 257.688 33.0275 257.929 33.6051C258.17 34.1828 258.511 34.6302 258.952 34.9474C259.397 35.2647 259.92 35.4233 260.521 35.4233C260.924 35.4233 261.288 35.3499 261.615 35.2031C261.946 35.0516 262.223 34.8362 262.446 34.5568C262.673 34.2775 262.832 33.9413 262.922 33.5483H264.989C264.913 34.2538 264.683 34.8835 264.3 35.4375C263.916 35.9915 263.402 36.4271 262.759 36.7443C262.119 37.0616 261.369 37.2202 260.507 37.2202ZM275.434 28.7543L273.51 29.0952C273.429 28.849 273.301 28.6146 273.126 28.392C272.956 28.1695 272.724 27.9872 272.43 27.8452C272.136 27.7031 271.77 27.6321 271.329 27.6321C270.728 27.6321 270.226 27.767 269.824 28.0369C269.421 28.3021 269.22 28.6454 269.22 29.0668C269.22 29.4313 269.355 29.7249 269.625 29.9474C269.895 30.17 270.33 30.3523 270.931 30.4943L272.664 30.892C273.668 31.1241 274.416 31.4815 274.909 31.9645C275.401 32.4474 275.647 33.0748 275.647 33.8466C275.647 34.5 275.458 35.0824 275.079 35.5938C274.705 36.1004 274.182 36.4981 273.51 36.7869C272.842 37.0758 272.068 37.2202 271.187 37.2202C269.966 37.2202 268.969 36.9598 268.197 36.4389C267.425 35.9134 266.952 35.1676 266.777 34.2017L268.829 33.8892C268.957 34.4242 269.22 34.8291 269.618 35.1037C270.015 35.3736 270.534 35.5085 271.173 35.5085C271.869 35.5085 272.425 35.3641 272.842 35.0753C273.259 34.7817 273.467 34.4242 273.467 34.0028C273.467 33.6619 273.339 33.3755 273.083 33.1435C272.833 32.9115 272.447 32.7363 271.926 32.6179L270.079 32.2131C269.061 31.9811 268.308 31.6117 267.821 31.1051C267.338 30.5985 267.096 29.9569 267.096 29.1804C267.096 28.5365 267.276 27.973 267.636 27.4901C267.996 27.0071 268.493 26.6307 269.127 26.3608C269.762 26.0862 270.489 25.9489 271.308 25.9489C272.487 25.9489 273.415 26.2045 274.092 26.7159C274.769 27.2225 275.217 27.902 275.434 28.7543Z" fill="#7B788A"/>
</svg>
