<svg width="216" height="60" viewBox="0 0 216 60" fill="none" xmlns="http://www.w3.org/2000/svg">
    <path fill-rule="evenodd" clip-rule="evenodd" d="M30 60C46.5685 60 60 46.5685 60 30C60 13.4315 46.5685 0 30 0C13.4315 0 0 13.4315 0 30C0 46.5685 13.4315 60 30 60ZM43.8628 44.9314C44.9038 44.8299 45.65 45.3274 45.9269 46.3536H45.932C46.2013 47.3564 45.673 48.0753 44.8295 48.5546C44.2782 48.8672 43.6628 48.9922 43.0115 49C39.4448 49.0495 36.5013 47.5778 33.85 45.3638C32.3884 44.1448 31.191 43.5275 30.0013 43.5119C28.8115 43.5275 27.6115 44.1448 26.1525 45.3638C23.5013 47.5778 20.5577 49.0495 16.991 49C16.3397 48.9896 15.7243 48.8672 15.1731 48.5546C14.332 48.0753 13.8013 47.3564 14.0705 46.3536C14.3448 45.3274 15.0936 44.8299 16.1346 44.9314C18.15 45.1268 18.8192 44.4808 19.7756 43.0613C17.2551 43.5926 15.6269 42.9389 15.1218 42.6471C14.4679 42.2694 13.8064 41.785 14.0679 40.9306C14.3243 40.0945 15.0936 39.9278 15.8833 40.0789C17.0013 40.2925 18.0782 40.4175 18.95 39.3261C18.8956 39.2771 18.8413 39.2275 18.7868 39.1779C18.6562 39.0589 18.5249 38.9392 18.391 38.8234C17.9243 38.4249 17.5679 37.9561 17.8038 37.3231C18.0295 36.7188 18.6038 36.3724 19.1833 36.4792C19.2504 36.4917 19.3268 36.5082 19.4094 36.5261C19.9141 36.6352 20.6497 36.7943 20.8987 36.3802L20.8859 36.375C20.9961 36.349 21.1654 35.8957 21.2013 35.5649C21.3731 33.9448 20.6731 32.395 19.7269 31.1057C18.55 29.5038 17.7397 27.7404 17.3833 25.7791C16.8243 22.7055 17.4192 19.8456 19.0782 17.2174C21.05 14.097 23.832 12.0419 27.4884 11.2865C28.3474 11.1094 29.1833 11.0156 29.9987 11C30.8115 11.0156 31.65 11.1094 32.5089 11.2865C36.1679 12.0419 38.9474 14.097 40.9192 17.2174C42.5807 19.8456 43.1756 22.7055 42.6141 25.7791C42.2551 27.7378 41.4474 29.5038 40.2705 31.1057C39.3269 32.395 38.6269 33.9474 38.7961 35.5649C38.832 35.8957 39.0013 36.349 39.1115 36.375L39.0987 36.3802C39.3476 36.7964 40.0848 36.6359 40.5884 36.5263C40.6709 36.5083 40.7472 36.4917 40.8141 36.4792C41.3961 36.3724 41.9679 36.7188 42.1936 37.3231C42.4295 37.9561 42.0705 38.4249 41.6064 38.8234C41.4725 38.9392 41.3411 39.0589 41.2106 39.1779C41.1561 39.2276 41.1017 39.2771 41.0474 39.3261C41.9192 40.4175 42.9936 40.2925 44.1141 40.0789C44.9038 39.9278 45.6731 40.0945 45.9295 40.9306C46.191 41.785 45.5295 42.2694 44.8756 42.6471C44.3679 42.9389 42.7423 43.5952 40.2218 43.0613C41.1782 44.4808 41.8474 45.1268 43.8628 44.9314ZM23.0602 32.1658C23.0628 33.278 23.9731 34.2001 25.0756 34.2027C26.2705 34.2079 27.1372 33.3952 27.1474 32.257C27.1577 31.1083 26.1961 30.0847 25.1166 30.0951C23.9807 30.1055 23.0602 31.0328 23.0602 32.1658ZM32.8474 32.257C32.8577 33.3926 33.7218 34.2079 34.9192 34.2027C36.0218 34.2001 36.9346 33.278 36.9346 32.1658C36.9346 31.0354 36.0141 30.1081 34.8782 30.0951C33.8013 30.0847 32.8372 31.1083 32.8474 32.257Z" fill="white"/>
    <path d="M212.321 21.0721C210.249 21.0721 208.599 19.3942 208.599 17.2859C208.599 15.1777 210.249 13.5428 212.321 13.5428C214.351 13.5428 216 15.1777 216 17.2859C216 19.3942 214.351 21.0721 212.321 21.0721ZM209.107 45.9404V24.4281H215.62V45.9404H209.107Z" fill="white"/>
    <path d="M191.621 46.5C187.138 46.5 184.347 43.8325 184.347 39.6161C184.347 35.6578 187.096 33.2054 192.171 32.8182L198.092 32.3449V32.0007C198.092 29.8925 196.823 28.7738 194.497 28.7738C191.748 28.7738 190.268 29.8494 190.268 31.7856H184.855C184.855 26.9238 188.788 23.7399 194.835 23.7399C200.967 23.7399 204.435 27.2249 204.435 33.3775V45.9407H198.684L198.261 43.1011C197.584 45.0802 194.793 46.5 191.621 46.5ZM193.905 41.5952C196.4 41.5952 198.134 40.3475 198.134 37.8951V36.7334L194.835 37.0346C192.002 37.2927 190.987 37.9381 190.987 39.3149C190.987 40.8638 191.917 41.5952 193.905 41.5952Z" fill="white"/>
    <path d="M168.373 45.9407H161.86V13.5H168.373V32.1728L175.224 24.4283H183.386L175.435 32.9472L183.132 45.9407H175.604L170.868 37.895L168.373 40.5626V45.9407Z" fill="white"/>
    <path d="M142.725 45.9407H136.213V24.4283H142.345L142.768 26.6656C144.079 24.8155 146.489 23.7399 149.238 23.7399C154.271 23.7399 157.189 27.0098 157.189 32.6461V45.9407H150.676V34.238C150.676 31.5274 149.196 29.7634 146.954 29.7634C144.375 29.7634 142.725 31.4844 142.725 34.1519V45.9407Z" fill="white"/>
    <path d="M128.028 21.0721C125.956 21.0721 124.306 19.3942 124.306 17.2859C124.306 15.1777 125.956 13.5428 128.028 13.5428C130.058 13.5428 131.707 15.1777 131.707 17.2859C131.707 19.3942 130.058 21.0721 128.028 21.0721ZM124.814 45.9404V24.4281H131.327V45.9404H124.814Z" fill="white"/>
    <path d="M105.68 45.9407H99.1668V13.5H105.722V26.6656C107.033 24.8155 109.444 23.7399 112.192 23.7399C117.225 23.7399 120.143 27.0098 120.143 32.646V45.9407H113.63V34.2379C113.63 31.5274 112.15 29.7634 109.909 29.7634C107.329 29.7634 105.68 31.4844 105.68 34.1519V45.9407Z" fill="white"/>
    <path d="M72.4652 23.3527C72.4652 17.5874 77.2441 13.5 83.9683 13.5C90.6926 13.5 94.9217 17.2862 94.9217 23.3096H88.1129C88.1129 21.0724 86.4635 19.6956 83.8838 19.6956C81.0926 19.6956 79.3163 20.9863 79.3163 23.0945C79.3163 25.0306 80.289 25.9772 82.4882 26.4505L87.1825 27.44C92.7649 28.6017 95.4292 31.3123 95.4292 36.3462C95.4292 42.4987 90.6926 46.5 83.5031 46.5C76.5251 46.5 72 42.6708 72 36.6904H78.8088C78.8088 39.0137 80.5005 40.3044 83.5454 40.3044C86.6327 40.3044 88.5781 39.0567 88.5781 37.0346C88.5781 35.2705 87.7745 34.367 85.7023 33.9368L80.9234 32.9472C75.341 31.7855 72.4652 28.5587 72.4652 23.3527Z" fill="white"/>
</svg>
